<svg xmlns="http://www.w3.org/2000/svg" xmlns:xlink="http://www.w3.org/1999/xlink" version="1.1" width="1200" height="1000" viewBox="0 0 1200 1000" xml:space="preserve" data="image/svg+xml">

<rect x="0" y="0" width="100%" height="100%" fill="#ffffff"/>
<g transform="matrix(1.0943 0 0 1.0931 690.5422 267.1255)" id="462257">
<path style="stroke: none; stroke-width: 0; stroke-dasharray: none; stroke-linecap: butt; stroke-dashoffset: 0; stroke-linejoin: miter; stroke-miterlimit: 4; is-custom-font: none; font-file-url: none; fill: rgb(245,95,68); fill-rule: nonzero; opacity: 0.5;" transform=" translate(-631.414, -4929.305)" d="M 631.414 4935.82 C 635.014 4935.82 637.932 4932.9 637.932 4929.3 C 637.932 4925.7 635.014 4922.79 631.414 4922.79 C 627.814 4922.79 624.896 4925.7 624.896 4929.3 C 624.896 4932.9 627.814 4935.82 631.414 4935.82 Z" stroke-linecap="round"/>
</g>
<g transform="matrix(1.0943 0 0 1.0931 988.3226 236.2716)" id="45476">
<path style="stroke: none; stroke-width: 0; stroke-dasharray: none; stroke-linecap: butt; stroke-dashoffset: 0; stroke-linejoin: miter; stroke-miterlimit: 4; is-custom-font: none; font-file-url: none; fill: rgb(71,230,177); fill-rule: nonzero; opacity: 0.5;" transform=" translate(-903.5225, -4901.08)" d="M 905.152 4891.85 H 901.893 V 4910.31 H 905.152 V 4891.85 Z" stroke-linecap="round"/>
</g>
<g transform="matrix(1.0943 0 0 1.0931 988.3222 236.272)" id="763253">
<path style="stroke: none; stroke-width: 0; stroke-dasharray: none; stroke-linecap: butt; stroke-dashoffset: 0; stroke-linejoin: miter; stroke-miterlimit: 4; is-custom-font: none; font-file-url: none; fill: rgb(71,230,177); fill-rule: nonzero; opacity: 0.5;" transform=" translate(-903.5225, -4901.08)" d="M 912.756 4902.71 V 4899.45 H 894.289 V 4902.71 H 912.756 Z" stroke-linecap="round"/>
</g>
<g transform="matrix(1.0943 0 0 1.0931 824.3995 282.3855)" id="743572">
<path style="stroke: none; stroke-width: 0; stroke-dasharray: none; stroke-linecap: butt; stroke-dashoffset: 0; stroke-linejoin: miter; stroke-miterlimit: 4; is-custom-font: none; font-file-url: none; fill: rgb(77,138,240); fill-rule: nonzero; opacity: 0.5;" transform=" translate(-753.7313, -4943.265)" d="M 759.81 4943.39 C 757.951 4942.58 756.995 4940.5 757.586 4938.56 C 757.633 4938.42 757.662 4938.27 757.673 4938.12 C 757.732 4937.24 757.201 4936.42 756.369 4936.11 C 755.537 4935.8 754.603 4936.08 754.073 4936.79 C 753.984 4936.92 753.91 4937.05 753.852 4937.19 C 753.042 4939.05 750.968 4940 749.028 4939.41 C 748.885 4939.36 748.736 4939.34 748.585 4939.32 C 747.7 4939.26 746.882 4939.8 746.576 4940.63 C 746.269 4941.46 746.547 4942.39 747.258 4942.92 C 747.38 4943.01 747.512 4943.09 747.651 4943.14 C 749.51 4943.95 750.466 4946.03 749.875 4947.97 C 749.829 4948.11 749.8 4948.26 749.788 4948.41 C 749.729 4949.3 750.26 4950.11 751.092 4950.42 C 751.924 4950.73 752.859 4950.45 753.388 4949.74 C 753.477 4949.62 753.552 4949.48 753.61 4949.35 C 754.42 4947.49 756.495 4946.53 758.434 4947.12 C 758.578 4947.17 758.727 4947.2 758.877 4947.21 C 759.762 4947.27 760.58 4946.74 760.887 4945.9 C 761.193 4945.07 760.916 4944.14 760.204 4943.61 C 760.082 4943.52 759.95 4943.45 759.81 4943.39 Z" stroke-linecap="round"/>
</g>
<g transform="matrix(1.0943 0 0 1.0931 94.8301 861.9321)" id="589203">
<path style="stroke: none; stroke-width: 0; stroke-dasharray: none; stroke-linecap: butt; stroke-dashoffset: 0; stroke-linejoin: miter; stroke-miterlimit: 4; is-custom-font: none; font-file-url: none; fill: rgb(71,230,177); fill-rule: nonzero; opacity: 0.5;" transform=" translate(-87.0577, -5473.43)" d="M 77.8242 5471.8 V 5475.06 H 96.2912 V 5471.8 H 77.8242 Z" stroke-linecap="round"/>
</g>
<g transform="matrix(1.0943 0 0 1.0931 94.8304 861.9262)" id="184846">
<path style="stroke: none; stroke-width: 0; stroke-dasharray: none; stroke-linecap: butt; stroke-dashoffset: 0; stroke-linejoin: miter; stroke-miterlimit: 4; is-custom-font: none; font-file-url: none; fill: rgb(71,230,177); fill-rule: nonzero; opacity: 0.5;" transform=" translate(-87.0577, -5473.425)" d="M 88.6872 5464.19 H 85.4282 V 5482.66 H 88.6872 V 5464.19 Z" stroke-linecap="round"/>
</g>
<g transform="matrix(1.0943 0 0 1.0931 204.5118 930.9147)" id="820986">
<path style="stroke: none; stroke-width: 0; stroke-dasharray: none; stroke-linecap: butt; stroke-dashoffset: 0; stroke-linejoin: miter; stroke-miterlimit: 4; is-custom-font: none; font-file-url: none; fill: rgb(245,95,68); fill-rule: nonzero; opacity: 0.5;" transform=" translate(-187.284, -5536.535)" d="M 193.802 5536.54 C 193.802 5532.94 190.884 5530.02 187.284 5530.02 C 183.684 5530.02 180.766 5532.94 180.766 5536.54 C 180.766 5540.14 183.684 5543.05 187.284 5543.05 C 190.884 5543.05 193.802 5540.14 193.802 5536.54 Z" stroke-linecap="round"/>
</g>
<g transform="matrix(1.0943 0 0 1.0931 302.9844 828.9051)" id="971221">
<path style="stroke: none; stroke-width: 0; stroke-dasharray: none; stroke-linecap: butt; stroke-dashoffset: 0; stroke-linejoin: miter; stroke-miterlimit: 4; is-custom-font: none; font-file-url: none; fill: rgb(77,138,240); fill-rule: nonzero; opacity: 0.5;" transform=" translate(-277.2673, -5443.2173)" d="M 277.389 5437.14 C 276.579 5439 274.504 5439.96 272.565 5439.36 C 272.421 5439.32 272.273 5439.29 272.122 5439.28 C 271.237 5439.22 270.419 5439.75 270.112 5440.58 C 269.806 5441.41 270.084 5442.35 270.795 5442.88 C 270.917 5442.97 271.049 5443.04 271.188 5443.1 C 273.047 5443.91 274.003 5445.98 273.412 5447.92 C 273.365 5448.07 273.336 5448.21 273.325 5448.37 C 273.266 5449.25 273.797 5450.07 274.629 5450.37 C 275.461 5450.68 276.395 5450.4 276.925 5449.69 C 277.014 5449.57 277.088 5449.44 277.146 5449.3 C 277.956 5447.44 280.03 5446.48 281.97 5447.08 C 282.113 5447.12 282.263 5447.15 282.413 5447.16 C 283.298 5447.22 284.116 5446.69 284.422 5445.86 C 284.729 5445.03 284.451 5444.09 283.74 5443.56 C 283.618 5443.47 283.486 5443.4 283.347 5443.34 C 281.488 5442.53 280.532 5440.46 281.123 5438.52 C 281.169 5438.37 281.198 5438.22 281.21 5438.07 C 281.269 5437.19 280.738 5436.37 279.906 5436.06 C 279.074 5435.76 278.139 5436.03 277.61 5436.75 C 277.521 5436.87 277.447 5437 277.389 5437.14 Z" stroke-linecap="round"/>
</g>
<g transform="matrix(1.0943 0 0 1.0931 8.6063 990.6901)" id="948690">
<path style="stroke: none; stroke-width: 0; stroke-dasharray: none; stroke-linecap: butt; stroke-dashoffset: 0; stroke-linejoin: miter; stroke-miterlimit: 4; is-custom-font: none; font-file-url: none; fill: rgb(77,138,240); fill-rule: nonzero; opacity: 0.5;" transform=" translate(-8.2674, -5591.2173)" d="M 8.38869 5585.14 C 7.57884 5587 5.50441 5587.96 3.56495 5587.36 C 3.42122 5587.32 3.27266 5587.29 3.12208 5587.28 C 2.23727 5587.22 1.41902 5587.75 1.11232 5588.58 C 0.805618 5589.41 1.08356 5590.35 1.79494 5590.88 C 1.91684 5590.97 2.0488 5591.04 2.188 5591.1 C 4.04685 5591.91 5.00297 5593.98 4.41163 5595.92 C 4.36527 5596.07 4.33616 5596.21 4.32472 5596.37 C 4.26579 5597.25 4.79688 5598.07 5.62892 5598.37 C 6.46097 5598.68 7.39538 5598.4 7.92482 5597.69 C 8.01371 5597.57 8.08808 5597.44 8.14601 5597.3 C 8.95586 5595.44 11.0303 5594.48 12.9697 5595.08 C 13.1135 5595.12 13.2625 5595.15 13.4131 5595.16 C 14.2979 5595.22 15.1157 5594.69 15.4224 5593.86 C 15.7291 5593.03 15.4511 5592.09 14.7398 5591.56 C 14.6179 5591.47 14.486 5591.4 14.3467 5591.34 C 12.4878 5590.53 11.5317 5588.46 12.1231 5586.52 C 12.1693 5586.37 12.1985 5586.22 12.21 5586.07 C 12.2689 5585.19 11.7383 5584.37 10.9063 5584.06 C 10.0742 5583.76 9.13932 5584.03 8.60988 5584.75 C 8.52097 5584.87 8.4466 5585 8.38869 5585.14 Z" stroke-linecap="round"/>
</g>
<g transform="matrix(1.0943 0 0 1.0931 419.3065 909.478)" id="828580">
<path style="stroke: none; stroke-width: 0; stroke-dasharray: none; stroke-linecap: butt; stroke-dashoffset: 0; stroke-linejoin: miter; stroke-miterlimit: 4; is-custom-font: none; font-file-url: none; fill: rgb(77,138,240); fill-rule: nonzero; opacity: 0.5;" transform=" translate(-383.561, -5516.925)" d="M 390.079 5516.92 C 390.079 5513.32 387.161 5510.41 383.561 5510.41 C 379.961 5510.41 377.043 5513.32 377.043 5516.92 C 377.043 5520.52 379.961 5523.44 383.561 5523.44 C 387.161 5523.44 390.079 5520.52 390.079 5516.92 Z" stroke-linecap="round"/>
</g>
</svg>