<svg width="582" height="392" viewBox="0 0 582 392" fill="none" xmlns="http://www.w3.org/2000/svg">
  <g opacity="0.1" transform="matrix(1, 0, 0, 1, -6.539624, 15.73811)">
    <path d="M346.97 251.566C357.116 250.912 369.705 243.13 379.493 239.689C391.078 235.626 402.708 231.717 414.385 227.962C455.035 214.884 496.121 203.74 537.642 194.531C541.517 193.669 545.398 192.828 549.285 192.008C543.502 177.583 534.138 164.869 522.079 155.066C522.38 151.827 522.533 148.578 522.538 145.317C522.538 93.8519 486.163 52.1309 441.275 52.1309C427.278 52.1665 413.587 56.2303 401.837 63.8369C370.066 40.2069 328.6 25.9059 283.23 25.9059C218.762 25.9059 162.167 54.7839 130.098 98.2699L280.815 127.06L373.252 144.71C267.872 148.266 162.167 151.801 57.0901 143.454C28.4851 174.754 23.4601 224.554 45.0981 262.331C45.0981 264.195 45.1671 266.043 45.2911 267.875C47.9681 268.742 50.5521 269.583 52.8711 270.133C90.0937 279.022 127.556 286.462 165.257 292.454C137.473 311.822 103.641 314.566 71.5951 322.766C87.8449 337.862 109.228 346.214 131.408 346.127H477.174C514.615 346.127 544.962 316.656 544.962 280.298C550.638 269.643 554.37 258.062 555.981 246.098C486.7 253.656 416.557 247.089 346.97 251.566Z" fill="#ED1D55"></path>
    <path d="M556.516 231.999C556.59 201.59 543.571 173.041 521.615 155.472C521.914 152.235 522.067 148.987 522.074 145.728C522.074 94.2629 485.674 52.5579 440.792 52.5579C426.791 52.593 413.096 56.6545 401.34 64.2579C369.562 40.6179 328.08 26.3109 282.7 26.3109C208.885 26.3109 145.347 64.1799 117.169 118.484C115.603 118.384 114.028 118.323 112.439 118.323C67.5551 118.323 31.1557 160.044 31.1557 211.509C31.0653 229.457 35.6759 247.117 44.5301 262.73C44.5301 309.03 83.1921 346.572 130.864 346.572H476.72C514.165 346.572 544.52 317.097 544.52 280.738C552.473 265.728 556.594 248.985 556.516 231.999Z" fill="var(--color-primary-lighter)"></path>
  </g>
  <g transform="matrix(1.044449, 0, 0, 1.098209, 109.873932, 41.83181)" style="">
    <path opacity="0.1" d="M 348.959 278.386 C 389.728 262.36 411.333 233.851 422.424 211.958 C 435.357 186.431 437.118 164.604 437.185 163.672 L 437.685 156.917 L 442.864 156.917 L 442.364 163.672 C 442.297 164.589 440.536 186.431 427.603 211.958 C 416.503 233.852 394.903 262.358 354.138 278.386 C 350.957 279.644 347.652 280.82 344.223 281.915 L 343.723 280.339 C 345.507 279.704 347.252 279.053 348.959 278.386 Z" fill="white"></path>
    <path d="M 178.905 166.142 C 183.244 161.22 186.163 156.702 185.425 156.051 C 184.687 155.4 180.571 158.863 176.232 163.785 C 171.893 168.707 168.974 173.224 169.712 173.875 C 170.451 174.526 174.567 171.064 178.905 166.142 Z" fill="#E0E0E0"></path>
    <path d="M 302.771 275.419 C 307.11 270.497 310.221 266.149 309.719 265.706 C 309.217 265.264 305.293 268.895 300.954 273.817 C 296.615 278.739 293.505 283.088 294.006 283.53 C 294.508 283.972 298.432 280.341 302.771 275.419 Z" fill="#E0E0E0"></path>
    <path d="M 233.677 226.13 L 229.544 220.323 L 210.186 234.103 L 214.32 239.91 L 233.677 226.13 Z" fill="var(--color-primary-darker)"></path>
    <path opacity="0.05" d="M 216.346 241.967 L 223.413 245.763 L 234.655 224.83 L 227.589 221.035 L 216.346 241.967 Z" fill="var(--color-primary-text)"></path>
    <path d="M 217.133 242.39 L 223.413 245.763 L 234.655 224.83 L 228.376 221.457 L 217.133 242.39 Z" fill="var(--color-primary-text)"></path>
    <path d="M 185.818 155.604 L 169.319 174.319 L 293.641 283.916 L 310.14 265.201 L 185.818 155.604 Z" fill="url(#paint2_linear_125_11653)"></path>
    <path d="M 294.034 283.471 C 291.587 281.373 167.929 172.303 169.712 173.874 C 180.869 163.913 185.424 156.05 185.424 156.05 L 309.746 265.647 C 309.746 265.647 302.341 273.132 294.034 283.471 Z" fill="#F5F5F5"></path>
    <path opacity="0.05" d="M 250.035 213.01 L 239.786 203.975 L 224.074 221.799 L 234.323 230.834 L 250.035 213.01 Z" fill="black"></path>
    <path d="M 249.59 212.617 L 240.233 204.368 L 224.52 222.192 L 233.878 230.441 L 249.59 212.617 Z" fill="var(--color-primary-darker)"></path>
    <path opacity="0.05" d="M 247.808 211.046 L 241.57 205.547 L 225.857 223.371 L 232.095 228.87 L 247.808 211.046 Z" fill="black"></path>
    <path d="M 247.362 210.653 L 242.015 205.94 L 226.302 223.763 L 231.649 228.477 L 247.362 210.653 Z" fill="var(--color-primary-text)"></path>
    <path d="M 228.662 203.339 L 217.659 213.004 C 217.659 213.004 217.031 225.806 274.993 240.996 C 332.956 256.186 340.603 245.967 340.603 245.967 L 334.019 227.382 L 307.044 195.966 L 228.662 203.339 Z" fill="var(--color-primary-text)"></path>
    <path d="M 407.286 204.442 L 292.102 222.277 L 178.73 143.163 L 307.853 121.705 L 357.367 162.904 L 359.145 164.383 L 407.286 204.442 Z" fill="var(--color-primary-text)"></path>
    <path d="M 351.557 201.178 L 349.564 200.77 L 357.367 162.904 L 359.145 164.383 L 351.557 201.178 Z" fill="#F5F5F5"></path>
    <path d="M 241.718 159.875 L 217.658 213.007 C 217.658 213.007 289.079 209.376 340.602 245.97 L 347.881 184.835 C 347.881 184.835 273.584 154.75 241.718 159.875 Z" fill="var(--color-primary-darker)"></path>
  </g>
  <g transform="matrix(1.337587, 0, 0, 1.303368, -45.789017, -65.568665)" style="">
    <path d="M 142.626 205.138 C 142.809 205.304 143.085 205.337 143.306 205.22 C 143.076 205.223 142.847 205.196 142.626 205.138 Z" fill="url(#paint0_linear_125_9460)"></path>
    <path d="M 217.341 88.247 C 216.026 87.883 214.157 87.29 211.892 86.547 C 214.24 83.657 215.957 80.357 216.942 76.837 L 216.749 76.907 C 216.811 76.69 216.879 76.478 216.942 76.261 C 212.614 77.941 207.82 75.086 204.771 71.438 C 201.723 67.79 199.646 63.25 196.31 59.884 C 194.917 58.551 193.419 57.32 191.828 56.201 C 190.937 55.387 189.8 54.855 188.573 54.68 C 186.627 54.627 185.1 56.442 183.223 56.988 C 181.986 57.254 180.696 57.21 179.483 56.859 C 174.638 55.796 169.968 53.84 165.047 53.335 C 162.402 53.022 159.717 53.31 157.215 54.175 C 154.721 55.075 153.599 56.875 151.603 58.287 C 149.44 59.826 145.128 59.787 142.58 60.049 C 139.489 60.384 136.376 60.507 133.265 60.419 C 131.476 60.267 129.674 60.33 127.902 60.607 C 124.199 61.382 121.225 64.19 118.455 66.892 C 117.695 67.509 117.149 68.328 116.891 69.242 C 116.856 69.499 116.856 69.76 116.891 70.017 C 116.862 70.719 116.989 71.42 117.264 72.073 C 118.102 74.502 119.299 76.807 120.818 78.922 C 122.09 80.392 123.139 82.021 123.936 83.762 C 124.242 84.664 124.404 85.605 124.415 86.552 C 124.38 87.558 124.27 88.561 124.085 89.552 C 123.595 92.287 122.79 94.964 121.684 97.535 C 121.003 98.868 120.531 100.287 120.281 101.747 C 120.262 102.044 120.262 102.343 120.281 102.64 C 120.094 107.24 124.963 110.558 125.893 115.134 C 125.967 115.512 126.012 115.895 126.03 116.279 C 125.988 119.098 124.338 121.677 121.711 123.027 C 121.929 123.109 122.153 123.18 122.378 123.256 C 122.163 123.384 121.94 123.502 121.711 123.608 C 122.166 123.772 122.633 123.913 123.108 124.043 C 120.242 126.409 117.835 129.227 115.996 132.372 C 107.604 147.372 50.404 176.785 50.404 176.785 C 50.404 176.785 50.727 176.955 51.253 177.249 C 51.04 177.372 50.816 177.513 50.567 177.672 C 45.616 180.82 33.994 190.007 44.501 201.591 C 44.501 201.591 52.699 189.226 58.442 183.969 C 58.704 183.734 58.954 183.517 59.197 183.311 C 59.457 183.686 59.538 184.146 59.421 184.58 L 97.036 164.391 C 97.036 164.391 110.404 155.451 114.132 153.43 C 116.754 151.876 119.611 150.706 122.606 149.958 L 122.169 150.14 C 123.575 149.77 125.025 149.572 126.484 149.553 C 133.143 149.653 140.351 154.311 142.732 172.761 C 145.917 197.467 144.44 201.919 143.418 202.53 C 143.291 202.521 143.166 202.499 143.044 202.465 C 143.075 202.492 143.108 202.515 143.144 202.535 C 143.004 202.527 142.866 202.503 142.732 202.465 C 142.878 202.596 143.087 202.645 143.281 202.594 C 143.421 202.633 143.573 202.616 143.699 202.547 L 144.204 202.547 C 144.204 202.77 144.167 203.005 144.148 203.234 C 144.098 203.234 143.849 203.369 144.148 203.387 C 144.074 204.779 144.079 206.324 144.148 207.881 C 140.837 208.057 137.533 208.245 134.633 208.416 L 134.895 207.106 L 135.014 206.519 C 137.552 206.325 139.965 205.619 140.245 203.641 C 140.868 199.318 134.633 197.009 129.365 196.721 C 124.097 196.433 92.373 198.454 92.373 198.454 C 92.373 198.454 87.616 204.328 102.698 206.154 C 103.147 206.377 103.614 206.624 104.089 206.882 C 109.993 210.101 118.01 216.022 121.846 218.941 L 122.382 219.346 L 120.661 220.656 C 130.014 222.677 139.004 256.71 143.974 272.282 C 148.944 287.854 159.829 287.279 168.84 284.979 C 177.289 282.811 178.367 259.379 178.467 256.438 L 178.467 256.138 L 193.487 273.824 L 194.628 275.169 C 195.07 275.386 195.5 275.592 195.925 275.786 C 207.304 280.961 219.874 271.046 216.295 259.768 C 212.685 248.368 207.072 231.532 203.332 224.413 C 200.214 218.451 196.155 208.553 193.699 202.339 C 194.017 202.215 194.327 202.074 194.628 201.916 C 194.628 201.916 194.571 201.64 194.472 201.129 L 194.628 201.053 C 194.628 201.053 191.011 183.108 190.812 170.368 L 190.812 169.279 C 193.53 168.692 195.251 168.457 195.251 168.457 L 195.301 167.905 L 194.982 167.97 L 196.491 151.441 C 196.491 151.441 202.04 140.169 197.794 135.47 C 196.501 134.09 195.638 132.401 195.3 130.589 C 194.588 126.266 195.3 119.07 205.195 113.089 C 220.427 103.861 226.34 96.36 226.34 96.36 C 226.34 96.36 226.669 90.844 217.341 88.247 Z M 187.089 99.713 L 187.089 92.079 C 189.914 91.95 192.8 92.261 195.637 92.079 C 197.033 91.986 198.415 91.766 199.765 91.421 L 200.451 91.873 C 196.3 94.919 191.822 97.547 187.089 99.713 Z M 143.905 219.43 C 145.021 220.17 146.144 220.94 147.247 221.709 C 147.932 225.474 148.537 228.135 148.581 228.317 C 147.321 225.223 145.755 222.248 143.905 219.43 Z" fill="url(#paint1_linear_125_9460)"></path>
    <path d="M 168.321 214.607 L 167.648 218.049 L 167.13 220.681 L 166.188 225.498 L 157.06 231.519 C 157.06 231.519 156.237 230.855 154.877 229.81 C 151.137 226.91 143.274 220.999 137.5 217.827 C 136.015 216.935 134.408 216.238 132.723 215.754 L 168.321 214.607 Z" fill="#FFBDC6"></path>
    <path opacity="0.1" d="M 168.321 214.607 L 167.648 218.049 C 165.635 218.152 163.616 218.053 161.625 217.755 L 140.327 218.043 C 139.323 217.984 138.381 217.914 137.502 217.826 C 136.017 216.934 134.41 216.237 132.726 215.753 L 168.321 214.607 Z" fill="black"></path>
    <path d="M 161.624 217.168 C 161.624 217.168 172.268 218.889 172.891 214.607 C 173.514 210.325 167.41 208.007 162.241 207.723 C 157.072 207.439 126.034 209.444 126.034 209.444 C 126.034 209.444 120.56 216.322 140.331 217.474 L 161.624 217.168 Z" fill="#474463"></path>
    <path opacity="0.1" d="M 168.321 214.607 L 167.648 218.049 L 167.13 220.681 L 166.188 225.498 L 157.06 231.519 C 157.06 231.519 156.237 230.855 154.877 229.81 C 151.137 226.91 143.274 220.999 137.5 217.827 C 136.015 216.935 134.408 216.238 132.723 215.754 L 168.321 214.607 Z" fill="black"></path>
    <path opacity="0.1" d="M 168.321 214.607 L 167.648 218.049 C 165.635 218.152 163.616 218.053 161.625 217.755 L 140.327 218.043 C 139.323 217.984 138.381 217.914 137.502 217.826 C 136.017 216.934 134.41 216.237 132.726 215.753 L 168.321 214.607 Z" fill="black"></path>
    <path opacity="0.1" d="M 161.624 217.156 C 161.624 217.156 172.274 218.871 172.884 214.572 C 173.495 210.273 167.404 207.981 162.235 207.694 C 157.065 207.407 126.028 209.415 126.028 209.415 C 126.028 209.415 120.554 216.293 140.325 217.439 L 161.624 217.156 Z" fill="black"></path>
    <path d="M 184.899 75.865 L 129.221 75.865 L 129.221 138.064 L 184.899 138.064 L 184.899 75.865 Z" fill="#474463"></path>
    <path opacity="0.1" d="M 184.899 76.147 L 129.221 76.147 L 129.221 138.346 L 184.899 138.346 L 184.899 76.147 Z" fill="black"></path>
    <path d="M 63.966 182.341 C 62.66 182.832 61.496 183.606 60.569 184.602 C 54.957 189.836 46.921 202.118 46.921 202.118 C 36.646 190.587 48.018 181.477 52.865 178.346 C 54.043 177.588 54.835 177.171 54.835 177.171 L 63.966 182.341 Z" fill="#FFBDC6"></path>
    <path d="M 167.71 95.495 C 167.71 95.495 170.447 113.552 179.88 117.851 C 189.314 122.15 167.71 130.186 167.71 130.186 L 138.201 119.86 C 138.201 119.86 154.936 114.697 151.587 99.507 L 167.71 95.495 Z" fill="#FFBDC6"></path>
    <path d="M 136.067 204.128 L 135.4 207.558 L 134.857 210.201 L 133.916 215.018 L 124.787 221.033 C 124.787 221.033 123.964 220.375 122.605 219.333 C 118.864 216.433 111.002 210.522 105.221 207.35 C 103.737 206.457 102.13 205.759 100.445 205.276 L 136.067 204.128 Z" fill="#FFBDC6"></path>
    <path opacity="0.1" d="M 136.067 204.128 L 135.401 207.558 C 133.388 207.661 131.369 207.562 129.378 207.264 L 108.079 207.552 C 107.075 207.493 106.128 207.423 105.249 207.335 C 103.764 206.442 102.157 205.745 100.472 205.262 L 136.067 204.128 Z" fill="black"></path>
    <path d="M 129.377 206.706 C 129.377 206.706 140.027 208.421 140.628 204.127 C 141.23 199.833 135.154 197.527 129.979 197.243 C 124.803 196.959 93.783 198.964 93.783 198.964 C 93.783 198.964 88.302 205.842 108.079 206.994 L 129.377 206.706 Z" fill="#474463"></path>
    <path opacity="0.1" d="M 134.857 210.202 L 133.915 215.019 L 124.787 221.034 C 124.787 221.034 123.964 220.376 122.604 219.334 L 134.675 210.006 L 134.857 210.202 Z" fill="black"></path>
    <path d="M 195.144 275.819 C 194.726 275.625 194.309 275.425 193.897 275.232 L 192.775 273.899 L 178.055 256.312 L 178.055 256.617 C 177.955 259.554 176.895 282.827 168.628 284.976 C 159.805 287.267 149.162 287.842 144.312 272.365 C 139.461 256.888 130.594 223.065 121.49 221.056 L 135.032 210.595 C 135.032 210.595 143.998 220.475 147.652 229.932 C 147.515 229.345 141.324 202.09 146.405 197.267 L 190.83 197.267 C 190.83 197.267 197.688 215.667 202.389 224.786 C 206.049 231.864 211.542 248.599 215.077 259.924 C 218.582 271.108 206.28 280.987 195.144 275.819 Z" fill="#474463"></path>
    <path opacity="0.1" d="M 193.878 202.407 C 187.02 206.231 156.91 204.674 147.115 204.052 L 144.444 203.866 C 144.158 203.866 144.488 203.713 144.488 203.713 L 144.762 201.113 L 152.062 183.632 L 191.156 162.274 C 190.311 165.419 189.976 168.667 190.165 171.907 C 190.349 184.573 193.878 202.407 193.878 202.407 Z" fill="black"></path>
    <path d="M 193.879 201.543 C 187.021 205.367 156.911 203.81 147.116 203.188 L 144.448 203.012 L 144.005 202.977 L 144.491 202.86 L 146.898 202.273 L 152.066 182.783 L 191.16 161.431 C 190.314 164.576 189.98 167.824 190.169 171.064 C 190.35 183.716 193.879 201.543 193.879 201.543 Z" fill="#F2F1F2"></path>
    <path opacity="0.1" d="M 190.144 171.051 C 182.195 172.778 164.698 177.851 157.981 190.083 C 153.499 198.23 149.726 201.725 147.095 203.183 L 144.426 203.007 C 144.444 202.957 144.458 202.906 144.47 202.854 L 146.876 202.267 L 152.044 182.777 L 191.139 161.425 C 190.293 164.568 189.958 167.813 190.144 171.051 Z" fill="black"></path>
    <path opacity="0.1" d="M 54.837 177.184 L 63.966 182.341 C 62.66 182.832 61.497 183.607 60.569 184.602 C 59.808 182.511 55.033 179.592 52.863 178.346 C 54.045 177.601 54.837 177.184 54.837 177.184 Z" fill="black"></path>
    <path opacity="0.1" d="M 142.795 203.346 C 142.59 203.446 142.34 203.413 142.172 203.264 C 142.374 203.32 142.584 203.347 142.795 203.346 Z" fill="black"></path>
    <path d="M 163.451 116.706 C 163.451 116.706 155.233 117.564 149.453 111.831 C 149.453 111.831 125.137 118.431 116.9 133.331 C 108.663 148.231 52.68 177.469 52.68 177.469 C 52.68 177.469 62.419 182.626 61.503 185.205 L 98.324 165.143 C 98.324 165.143 111.416 156.262 115.052 154.253 C 118.687 152.244 138.789 139.921 143.047 173.453 C 147.306 206.985 143.047 202.975 143.047 202.975 C 143.047 202.975 149.133 204.984 157.956 188.93 C 166.779 172.876 194.152 169.152 194.152 169.152 L 195.673 152.247 C 195.673 152.247 201.103 141.04 196.92 136.387 C 195.651 135.01 194.807 133.332 194.479 131.535 C 193.787 127.241 194.479 120.087 204.168 114.142 C 219.076 104.967 224.857 97.519 224.857 97.519 C 224.857 97.519 225.162 92.068 216.033 89.489 C 206.904 86.91 169.792 72.869 169.792 72.869 L 168.545 77.744 L 197.831 97.216 C 197.831 97.216 183.228 108.376 171.643 108.106 C 171.644 108.107 173.794 116.418 163.451 116.706 Z" fill="var(--color-primary)"></path>
    <path opacity="0.1" d="M 169.088 103.355 C 168.368 101.058 167.806 98.72 167.404 96.355 L 151.28 100.367 C 151.991 103.267 151.864 106.293 150.912 109.131 C 157.652 110.825 164.813 108.55 169.087 103.357 L 169.088 103.355 Z" fill="black"></path>
    <path d="M 155.695 108.822 C 165.271 108.822 173.034 101.509 173.034 92.487 C 173.034 83.466 165.271 76.152 155.695 76.152 C 146.119 76.152 138.356 83.466 138.356 92.487 C 138.356 101.509 146.119 108.822 155.695 108.822 Z" fill="#FFBDC6"></path>
    <path opacity="0.1" d="M 164.917 55.335 C 169.731 55.846 174.3 57.796 179.034 58.859 C 180.218 59.208 181.479 59.255 182.688 58.994 C 184.528 58.454 186.024 56.644 187.932 56.694 C 189.14 56.856 190.259 57.386 191.116 58.204 C 192.668 59.32 194.127 60.545 195.481 61.869 C 198.748 65.211 200.775 69.711 203.755 73.347 C 206.736 76.983 211.437 79.808 215.67 78.14 C 212.789 88.713 203.357 96.766 193.149 97.424 C 189.077 97.682 184.907 96.884 180.965 98.011 C 179.981 98.386 178.944 98.622 177.887 98.711 C 175.618 98.711 173.791 96.749 172.375 94.84 C 169.058 90.352 166.431 85.254 162.698 81.16 C 161.451 79.809 160.011 78.523 158.266 78.276 C 156.521 78.029 154.918 78.811 153.365 79.568 C 150.679 80.691 148.246 82.286 146.195 84.268 C 144.03 86.483 143.129 89.544 143.775 92.492 C 144.218 94.055 145.229 95.464 145.247 97.097 C 145.284 99.697 142.84 101.608 142.359 104.146 C 142.251 105.212 142.211 106.283 142.241 107.353 C 142.028 110.83 139.616 113.679 137.097 115.864 C 135.985 116.629 135.159 117.706 134.74 118.942 C 134.547 119.835 134.74 120.786 134.616 121.691 C 134.248 123.947 131.856 125.091 129.746 125.391 C 127.276 125.73 124.756 125.448 122.439 124.575 C 125.394 123.253 127.215 119.512 126.529 116.152 C 125.587 111.5 120.624 108.163 121.048 103.423 C 121.282 101.971 121.745 100.559 122.42 99.235 C 123.502 96.679 124.288 94.02 124.764 91.305 C 125.255 89.216 125.205 87.047 124.621 84.979 C 123.861 83.247 122.84 81.627 121.591 80.168 C 120.093 78.072 118.912 75.791 118.08 73.389 C 117.777 72.68 117.661 71.912 117.744 71.151 C 117.986 70.239 118.519 69.419 119.271 68.801 C 121.983 66.117 124.883 63.321 128.518 62.557 C 130.252 62.281 132.016 62.216 133.768 62.363 C 136.814 62.456 139.863 62.335 142.89 61.999 C 145.385 61.723 149.599 61.764 151.713 60.237 C 153.683 58.81 154.791 57.03 157.219 56.125 C 159.676 55.273 162.317 54.998 164.913 55.325 L 164.917 55.335 Z" fill="black"></path>
    <path opacity="0.1" d="M 174.556 224.046 C 174.556 224.046 184.594 242.678 181.552 248.405 L 174.556 224.046 Z" fill="black"></path>
    <path opacity="0.1" d="M 192.756 273.875 L 178.054 256.312 L 178.054 256.617 C 178.054 256.617 177.204 250.931 180.006 252.84 C 186.141 257.022 195.955 263.877 196.167 265.058 C 196.378 266.239 194.177 270.956 192.756 273.875 Z" fill="black"></path>
    <g opacity="0.1" transform="matrix(1, 0, 0, 1, 6.2605, 2.934489)">
      <path d="M165.708 105.172C165.708 105.172 166.955 110.012 162.94 112.432C169.112 111.439 169.387 106.91 169.175 104.943C168.029 105.116 166.869 105.192 165.708 105.172Z" fill="black"></path>
      <path d="M50.0979 173.386C50.0979 173.386 106.076 144.151 114.317 129.249C120.209 118.549 134.413 112.138 141.957 109.366C136.457 111.128 117.927 117.772 110.969 130.395C102.764 145.297 46.75 174.536 46.75 174.536L50.0979 173.386Z" fill="black"></path>
      <path d="M176.608 102.893C186.134 100.103 195.238 93.1359 195.238 93.1359L166.008 73.6359L166.676 70.9689L163.876 69.9119L162.661 74.7869L191.872 94.2769C187.19 97.7443 182.062 100.64 176.609 102.894L176.608 102.893Z" fill="black"></path>
      <path d="M176.775 168.946C180.507 167.747 184.335 166.835 188.223 166.221L188.273 165.669C184.357 166.48 180.512 167.576 176.775 168.947V168.946Z" fill="black"></path>
      <path d="M141.373 198.973H141.104C140.899 199.072 140.65 199.039 140.481 198.891C140.684 198.946 140.894 198.974 141.104 198.973C142.102 198.427 143.599 194.145 140.481 169.373C137.127 142.94 123.922 145.002 116.704 148.045C124.087 146.13 134.243 147.787 137.13 170.519C140.278 195.295 138.777 199.577 137.753 200.119C139.052 200.074 140.309 199.676 141.373 198.973Z" fill="black"></path>
      <path d="M137.757 200.124C137.546 200.125 137.336 200.097 137.133 200.042C137.302 200.19 137.552 200.223 137.757 200.124Z" fill="black"></path>
    </g>
    <path d="M 164.917 54.759 C 169.731 55.276 174.3 57.22 179.034 58.283 C 180.219 58.63 181.479 58.675 182.688 58.412 C 184.528 57.877 186.024 56.062 187.932 56.112 C 189.135 56.289 190.249 56.817 191.116 57.622 C 192.666 58.74 194.125 59.965 195.481 61.287 C 198.748 64.629 200.774 69.129 203.755 72.765 C 206.736 76.401 211.437 79.226 215.67 77.558 C 212.789 88.131 203.357 96.184 193.149 96.842 C 189.077 97.106 184.906 96.307 180.965 97.429 C 179.982 97.807 178.945 98.043 177.887 98.129 C 175.617 98.129 173.791 96.167 172.375 94.258 C 169.058 89.77 166.43 84.678 162.698 80.583 C 161.451 79.226 160.011 77.94 158.266 77.693 C 156.521 77.446 154.918 78.233 153.365 78.993 C 150.678 80.114 148.244 81.709 146.195 83.693 C 144.03 85.908 143.129 88.969 143.775 91.917 C 144.218 93.479 145.229 94.889 145.247 96.522 C 145.284 99.13 142.84 101.033 142.359 103.571 C 142.251 104.637 142.211 105.708 142.241 106.778 C 142.028 110.255 139.615 113.098 137.097 115.289 C 135.985 116.051 135.159 117.127 134.74 118.361 C 134.547 119.261 134.74 120.205 134.616 121.116 C 134.248 123.372 131.856 124.516 129.746 124.811 C 127.276 125.155 124.754 124.874 122.439 123.995 C 125.394 122.679 127.215 118.932 126.529 115.578 C 125.587 110.926 120.624 107.584 121.048 102.849 C 121.281 101.397 121.744 99.985 122.42 98.661 C 123.501 96.103 124.287 93.442 124.764 90.725 C 125.254 88.636 125.205 86.467 124.621 84.399 C 123.859 82.668 122.839 81.048 121.591 79.588 C 120.094 77.494 118.913 75.215 118.08 72.815 C 117.778 72.104 117.663 71.334 117.744 70.571 C 117.994 69.671 118.526 68.862 119.271 68.251 C 121.983 65.567 124.883 62.776 128.518 62.007 C 130.252 61.736 132.016 61.673 133.768 61.819 C 136.814 61.909 139.863 61.788 142.89 61.455 C 145.385 61.179 149.599 61.214 151.713 59.693 C 153.683 58.272 154.791 56.486 157.219 55.581 C 159.677 54.725 162.318 54.443 164.917 54.759 Z" fill="#474463"></path>
  </g>
  <defs>
    <linearGradient id="paint2_linear_125_11653" x1="607.665" y1="951.241" x2="588.892" y2="934.692" gradientUnits="userSpaceOnUse" gradientTransform="matrix(1, 0, 0, 1, 0, 0)">
      <stop stop-color="#808080" stop-opacity="0.251"></stop>
      <stop offset="0.535" stop-color="#808080" stop-opacity="0.122"></stop>
      <stop offset="1" stop-color="#808080" stop-opacity="0.102"></stop>
    </linearGradient>
    <linearGradient id="paint0_linear_125_9460" x1="136.71" y1="202.356" x2="136.71" y2="202.204" gradientUnits="userSpaceOnUse" gradientTransform="matrix(1, 0, 0, 1, 6.2605, 2.934489)">
      <stop stop-color="#808080" stop-opacity="0.251"></stop>
      <stop offset="0.54" stop-color="#808080" stop-opacity="0.122"></stop>
      <stop offset="1" stop-color="#808080" stop-opacity="0.102"></stop>
    </linearGradient>
    <linearGradient id="paint1_linear_125_9460" x1="127.03" y1="283.26" x2="127.03" y2="50.2778" gradientUnits="userSpaceOnUse" gradientTransform="matrix(1, 0, 0, 1, 6.2605, 2.934489)">
      <stop stop-color="#808080" stop-opacity="0.251"></stop>
      <stop offset="0.54" stop-color="#808080" stop-opacity="0.122"></stop>
      <stop offset="1" stop-color="#808080" stop-opacity="0.102"></stop>
    </linearGradient>
  </defs>
</svg>