<svg width="1185" height="5599" viewBox="0 0 1185 5599" fill="none" xmlns="http://www.w3.org/2000/svg">
<g id="Particles">
<g id="Group_642" opacity="0.5">
<path id="Rectangle_661-3" d="M759.148 1259.8V1263.06H777.615V1259.8H759.148Z" fill="#47E6B1"/>
<path id="Rectangle_662-3" d="M770.011 1252.2H766.752V1270.66H770.011V1252.2Z" fill="#47E6B1"/>
</g>
<path id="Ellipse_294" opacity="0.5" d="M719.125 1144.54C719.125 1140.94 716.207 1138.02 712.607 1138.02C709.007 1138.02 706.089 1140.94 706.089 1144.54C706.089 1148.14 709.007 1151.06 712.607 1151.06C716.207 1151.06 719.125 1148.14 719.125 1144.54Z" fill="#F55F44"/>
<path id="Ellipse_304" opacity="0.5" d="M759.125 1453.54C759.125 1449.94 756.207 1447.02 752.607 1447.02C749.007 1447.02 746.089 1449.94 746.089 1453.54C746.089 1457.14 749.007 1460.06 752.607 1460.06C756.207 1460.06 759.125 1457.14 759.125 1453.54Z" fill="#F55F44"/>
<path id="Path_1855" opacity="0.5" d="M839.713 1346.14C838.903 1348 836.829 1348.96 834.889 1348.37C834.745 1348.32 834.597 1348.29 834.446 1348.28C833.561 1348.22 832.743 1348.75 832.437 1349.58C832.13 1350.41 832.408 1351.35 833.119 1351.88C833.241 1351.97 833.373 1352.04 833.512 1352.1C835.371 1352.91 836.327 1354.98 835.736 1356.92C835.69 1357.07 835.661 1357.22 835.649 1357.37C835.59 1358.25 836.121 1359.07 836.953 1359.38C837.785 1359.68 838.72 1359.4 839.249 1358.69C839.338 1358.57 839.412 1358.44 839.47 1358.3C840.28 1356.44 842.355 1355.48 844.294 1356.08C844.438 1356.12 844.587 1356.15 844.737 1356.16C845.622 1356.22 846.44 1355.69 846.747 1354.86C847.053 1354.03 846.775 1353.09 846.064 1352.56C845.942 1352.47 845.81 1352.4 845.671 1352.34C843.812 1351.53 842.856 1349.46 843.447 1347.52C843.493 1347.37 843.523 1347.22 843.534 1347.07C843.593 1346.19 843.062 1345.37 842.23 1345.06C841.398 1344.76 840.464 1345.04 839.934 1345.75C839.845 1345.87 839.771 1346 839.713 1346.14Z" fill="#4D8AF0"/>
<path id="Path_1854" opacity="0.5" d="M818.713 1072.14C817.903 1074 815.829 1074.96 813.889 1074.36C813.745 1074.32 813.597 1074.29 813.446 1074.28C812.561 1074.22 811.743 1074.75 811.437 1075.58C811.13 1076.41 811.408 1077.35 812.119 1077.88C812.241 1077.97 812.373 1078.04 812.512 1078.1C814.371 1078.91 815.327 1080.98 814.736 1082.92C814.69 1083.07 814.661 1083.22 814.649 1083.37C814.59 1084.25 815.121 1085.07 815.953 1085.38C816.785 1085.68 817.72 1085.4 818.249 1084.69C818.338 1084.57 818.412 1084.44 818.47 1084.3C819.28 1082.44 821.355 1081.48 823.294 1082.08C823.438 1082.12 823.587 1082.15 823.737 1082.16C824.622 1082.22 825.44 1081.69 825.747 1080.86C826.053 1080.03 825.775 1079.09 825.064 1078.56C824.942 1078.47 824.81 1078.4 824.671 1078.34C822.812 1077.53 821.856 1075.46 822.447 1073.52C822.493 1073.37 822.523 1073.22 822.534 1073.07C822.593 1072.19 822.062 1071.37 821.23 1071.06C820.398 1070.76 819.464 1071.04 818.934 1071.75C818.845 1071.87 818.771 1072 818.713 1072.14Z" fill="#4D8AF0"/>

<path id="Ellipse_295" opacity="0.5" d="M818.493 968.132C818.493 964.532 815.575 961.614 811.975 961.614C808.375 961.614 805.457 964.532 805.457 968.132C805.457 971.732 808.375 974.65 811.975 974.65C815.575 974.65 818.493 971.732 818.493 968.132Z" fill="#47E6B1"/>

</g>
</svg>
