<svg width="1004" height="624" viewBox="0 0 1004 624" fill="none" xmlns="http://www.w3.org/2000/svg">

<path d="M796.845 152.754C798.6 152.754 800.023 151.331 800.023 149.576C800.023 147.821 798.6 146.398 796.845 146.398C795.09 146.398 793.667 147.821 793.667 149.576C793.667 151.331 795.09 152.754 796.845 152.754Z" fill="#DBDBDB"/>
<g opacity="0.5">
<path d="M132.738 64.0901H129.479V82.5571H132.738V64.0901Z" fill="#47E6B1"/>
<path d="M140.342 74.9531V71.6941H121.875V74.9531H140.342Z" fill="#47E6B1"/>
</g>
<g opacity="0.5">
<path d="M836.643 35.8469H833.384V54.3139H836.643V35.8469Z" fill="#47E6B1"/>
<path d="M844.247 46.7099V43.4509H825.78V46.7099H844.247Z" fill="#47E6B1"/>
</g>

<path opacity="0.5" d="M693.345 71.3219C691.486 70.5121 690.53 68.4374 691.121 66.4979C691.167 66.3542 691.196 66.2055 691.208 66.0549C691.267 65.1701 690.736 64.3521 689.904 64.0454C689.072 63.7387 688.137 64.0166 687.608 64.7279C687.519 64.8498 687.445 64.9817 687.387 65.1209C686.577 66.9798 684.502 67.9363 682.563 67.3449C682.419 67.2986 682.27 67.2694 682.12 67.2579C681.235 67.199 680.417 67.7297 680.11 68.5618C679.804 69.3938 680.082 70.3285 680.793 70.8579C680.915 70.9468 681.047 71.021 681.186 71.0789C683.045 71.8888 684.001 73.9635 683.41 75.9029C683.364 76.0467 683.334 76.1954 683.323 76.3459C683.264 77.2308 683.795 78.0487 684.627 78.3554C685.459 78.6621 686.393 78.3843 686.923 77.6729C687.012 77.5511 687.087 77.4192 687.145 77.2799C687.955 75.4211 690.029 74.4646 691.969 75.0559C692.113 75.1023 692.261 75.1315 692.412 75.1429C693.297 75.2019 694.115 74.6711 694.421 73.8391C694.728 73.007 694.45 72.0724 693.739 71.5429C693.617 71.4541 693.485 71.3799 693.346 71.3219H693.345Z" fill="#4D8AF0"/>
<path opacity="0.5" d="M286.184 105.327C284.325 104.517 283.369 102.443 283.96 100.503C284.007 100.359 284.036 100.211 284.047 100.06C284.106 99.1752 283.575 98.3573 282.743 98.0506C281.911 97.7439 280.977 98.0217 280.447 98.7331C280.358 98.8549 280.284 98.9868 280.226 99.1261C279.416 100.985 277.342 101.941 275.402 101.35C275.259 101.304 275.11 101.275 274.959 101.263C274.074 101.204 273.256 101.735 272.95 102.567C272.643 103.399 272.921 104.334 273.632 104.863C273.754 104.952 273.886 105.026 274.025 105.084C275.884 105.894 276.841 107.969 276.249 109.908C276.203 110.052 276.174 110.2 276.162 110.351C276.103 111.236 276.634 112.054 277.466 112.361C278.298 112.667 279.233 112.389 279.762 111.678C279.851 111.556 279.925 111.424 279.983 111.285C280.793 109.426 282.868 108.47 284.807 109.061C284.951 109.107 285.1 109.137 285.25 109.148C286.135 109.207 286.953 108.676 287.26 107.844C287.566 107.012 287.289 106.077 286.577 105.548C286.455 105.459 286.323 105.385 286.184 105.327Z" fill="#4D8AF0"/>
<path opacity="0.5" d="M996.517 135.102C1000.12 135.102 1003.04 132.184 1003.04 128.584C1003.04 124.984 1000.12 122.066 996.517 122.066C992.917 122.066 989.999 124.984 989.999 128.584C989.999 132.184 992.917 135.102 996.517 135.102Z" fill="#4D8AF0"/>

<path opacity="0.5" d="M7.30999 175.192C10.9098 175.192 13.828 172.274 13.828 168.674C13.828 165.074 10.9098 162.156 7.30999 162.156C3.7102 162.156 0.791992 165.074 0.791992 168.674C0.791992 172.274 3.7102 175.192 7.30999 175.192Z" fill="#47E6B1"/>
<path opacity="0.5" d="M524.882 13.036C528.482 13.036 531.4 10.1178 531.4 6.518C531.4 2.91821 528.482 0 524.882 0C521.282 0 518.364 2.91821 518.364 6.518C518.364 10.1178 521.282 13.036 524.882 13.036Z" fill="#F55F44"/>
</svg>
