<svg xmlns="http://www.w3.org/2000/svg" width="750" height="100" viewBox="0 0 1280 104.49">
<g opacity="0.5">
<path d="M918.41,52.18V48.92H899.94v3.26Z" transform="translate(-418.69 -5.47)" fill="#47e6b1"/>
<path d="M907.55,59.78h3.26V41.31h-3.26Z" transform="translate(-418.69 -5.47)" fill="#47e6b1"/>
</g>
<path d="M1028.44,103.44a6.52,6.52,0,1,0,6.51-6.52A6.51,6.51,0,0,0,1028.44,103.44Z" transform="translate(-418.69 -5.47)" fill="#f55f44" opacity="0.5" style="isolation:isolate"/>
<path d="M1143.17,18.83a4,4,0,0,1,4.82-2.22,1.8,1.8,0,0,0,.45.09,2,2,0,0,0,1.32-3.6,1.5,1.5,0,0,0-.39-.22,4,4,0,0,1-2.22-4.83,2.14,2.14,0,0,0,.08-.44,2,2,0,0,0-3.6-1.33,2.56,2.56,0,0,0-.22.4,4,4,0,0,1-4.82,2.22,1.64,1.64,0,0,0-.44-.09,2,2,0,0,0-1.33,3.6,1.5,1.5,0,0,0,.39.22,4,4,0,0,1,2.23,4.83,1.64,1.64,0,0,0-.09.44,2,2,0,0,0,3.6,1.33A1.94,1.94,0,0,0,1143.17,18.83Z" transform="translate(-418.69 -5.47)" fill="#4d8af0" opacity="0.5" style="isolation:isolate"/>
<path d="M425.85,66.83a4,4,0,0,1,4.82-2.22,1.64,1.64,0,0,0,.44.09,2,2,0,0,0,1.33-3.6,1.5,1.5,0,0,0-.39-.22,4,4,0,0,1-2.23-4.83,1.64,1.64,0,0,0,.09-.44,2,2,0,0,0-3.6-1.33,2.16,2.16,0,0,0-.22.39,4,4,0,0,1-4.82,2.23,1.8,1.8,0,0,0-.45-.09,2,2,0,0,0-1.32,3.6,1.5,1.5,0,0,0,.39.22,4,4,0,0,1,2.22,4.83,2.14,2.14,0,0,0-.08.44,2,2,0,0,0,3.6,1.33A2.56,2.56,0,0,0,425.85,66.83Z" transform="translate(-418.69 -5.47)" fill="#4d8af0" opacity="0.5" style="isolation:isolate"/>
</svg>