<svg xmlns="http://www.w3.org/2000/svg" width="800" viewBox="0 0 1185 105">
<g opacity="0.5">
<path d="M235.32,62.7V66h18.47V62.7Z" transform="translate(-3.17 -4.92)" fill="#47e6b1"/>
<path d="M246.18,55.1h-3.26V73.56h3.26Z" transform="translate(-3.17 -4.92)" fill="#47e6b1"/>
</g>
<path d="M125.3,11.44A6.52,6.52,0,1,0,118.78,18a6.51,6.51,0,0,0,6.52-6.52Z" transform="translate(-3.17 -4.92)" fill="#f55f44" opacity="0.5" style="isolation:isolate"/>
<path d="M10.56,96a4,4,0,0,1-4.82,2.23,1.63,1.63,0,0,0-.45-.09,2,2,0,0,0-2.12,1.87,2,2,0,0,0,.8,1.73,1.83,1.83,0,0,0,.39.21,4,4,0,0,1,2.22,4.83,2.11,2.11,0,0,0-.08.45,2,2,0,0,0,3.6,1.32,1.92,1.92,0,0,0,.22-.39A4,4,0,0,1,15.14,106a3.54,3.54,0,0,0,.45.08,2,2,0,0,0,2.12-1.88,2,2,0,0,0-.8-1.72,1.5,1.5,0,0,0-.39-.22,4,4,0,0,1-2.22-4.82,2.36,2.36,0,0,0,.08-.45,2,2,0,0,0-3.6-1.32A1.87,1.87,0,0,0,10.56,96Z" transform="translate(-3.17 -4.92)" fill="#4d8af0" opacity="0.5" style="isolation:isolate"/>
<path d="M727.92,48a4,4,0,0,1-4.83,2.23,1.33,1.33,0,0,0-.44-.09A2,2,0,0,0,720.52,52a2,2,0,0,0,.8,1.75,2.1,2.1,0,0,0,.39.21,4,4,0,0,1,2.23,4.83,1.63,1.63,0,0,0-.09.45,2,2,0,0,0,3.6,1.32,1.92,1.92,0,0,0,.22-.39A4,4,0,0,1,732.5,58a3.39,3.39,0,0,0,.44.08,2,2,0,0,0,2.13-1.86,2,2,0,0,0-.8-1.74,1.56,1.56,0,0,0-.4-.22,4,4,0,0,1-2.22-4.82,1.8,1.8,0,0,0,.09-.45,2,2,0,0,0-3.6-1.32A1.47,1.47,0,0,0,727.92,48Z" transform="translate(-3.17 -4.92)" fill="#4d8af0" opacity="0.5" style="isolation:isolate"/>
<path d="M434.92,19a4,4,0,0,1-4.83,2.23,1.33,1.33,0,0,0-.44-.09A2,2,0,0,0,427.52,23a2,2,0,0,0,.8,1.75,2.1,2.1,0,0,0,.39.21,4,4,0,0,1,2.23,4.83,1.63,1.63,0,0,0-.09.45,2,2,0,0,0,3.6,1.32,1.92,1.92,0,0,0,.22-.39A4,4,0,0,1,439.5,29a3.39,3.39,0,0,0,.44.08,2,2,0,0,0,2.13-1.86,2,2,0,0,0-.8-1.74,1.56,1.56,0,0,0-.4-.22,4,4,0,0,1-2.22-4.82,1.8,1.8,0,0,0,.09-.45,2,2,0,0,0-3.6-1.32A1.47,1.47,0,0,0,434.92,19Z" transform="translate(-3.17 -4.92)" fill="#4d8af0" opacity="0.5" style="isolation:isolate"/>
</svg>