<svg id="esldxJAeHf01" xmlns="http://www.w3.org/2000/svg" xmlns:xlink="http://www.w3.org/1999/xlink" viewBox="-3 -50 1440 900" shape-rendering="geometricPrecision" text-rendering="geometricPrecision"><g transform="translate(5 38)" opacity="0.5"><path d="M77.1479,672.799v3.259h18.467v-3.259h-18.467Z" fill="#47e6b1"/><path d="M88.011,665.195h-3.259v18.467h3.259v-18.467Z" fill="#47e6b1"/></g><g transform="translate(5 38)" opacity="0.5"><path d="M362.148,758.799v3.259h18.467v-3.259h-18.467Z" fill="#47e6b1"/><path d="M373.011,751.195h-3.259v18.467h3.259v-18.467Z" fill="#47e6b1"/></g><path d="M193.125,737.536c0-3.6-2.918-6.518-6.518-6.518s-6.518,2.918-6.518,6.518s2.918,6.518,6.518,6.518s6.518-2.918,6.518-6.518Z" transform="translate(5 38)" opacity="0.5" fill="#f55f44"/><path d="M276.713,638.14c-.81,1.859-2.884,2.815-4.824,2.224-.144-.046-.292-.076-.443-.087-.885-.059-1.703.472-2.009,1.304-.307.832-.029,1.767.682,2.296.122.089.254.163.393.221c1.859.81,2.815,2.884,2.224,4.824-.046.144-.075.292-.087.443-.059.885.472,1.703,1.304,2.009.832.307,1.767.029,2.296-.682.089-.122.163-.254.221-.393.81-1.859,2.885-2.815,4.824-2.224.144.046.293.076.443.087.885.059,1.703-.472,2.01-1.304.306-.832.028-1.767-.683-2.296-.122-.089-.254-.164-.393-.222-1.859-.81-2.815-2.885-2.224-4.824.046-.144.076-.292.087-.443.059-.885-.472-1.703-1.304-2.009-.832-.307-1.766-.029-2.296.682-.089.122-.163.254-.221.394Z" transform="translate(5 38)" opacity="0.5" fill="#4d8af0"/><path d="M1062.49,133.131c0-3.6-2.92-6.518-6.52-6.518-3.59,0-6.51,2.918-6.51,6.518s2.92,6.518,6.51,6.518c3.6,0,6.52-2.918,6.52-6.518Z" transform="translate(258 0)" opacity="0.5" fill="#47e6b1"/><path d="M7.71315,786.14c-.80985,1.859-2.88452,2.816-4.82398,2.224-.14373-.046-.29253-.075-.44311-.087-.88481-.059-1.702823.472-2.009523,1.304s-.028763,1.767.682613,2.296c.1219.089.25363.163.39283.221c1.85885.81,2.81546,2.885,2.22412,4.824-.04636.144-.07548.293-.08692.443-.05893.885.47167,1.703,1.30371,2.01.83205.306,1.76671.029,2.29615-.683.08889-.122.16301-.254.22094-.393.80985-1.859,2.88472-2.815,4.82422-2.224.1437.047.2923.076.4429.087.8848.059,1.7028-.472,2.0095-1.304s.0288-1.766-.6826-2.296c-.1218-.089-.2536-.163-.3928-.222-1.8589-.81-2.8155-2.884-2.2242-4.824.0463-.144.0757-.292.0872-.443.0589-.885-.4719-1.703-1.304-2.009-.83201-.307-1.76666-.029-2.2961.682-.08891.122-.16304.255-.22095.394Z" transform="translate(5 38)" opacity="0.5" fill="#4d8af0"/><path d="M1031.71,2.13998c-.81,1.85885-2.88,2.81534-4.82,2.224-.14-.04634-.29-.07558-.44-.08704-.89-.05893-1.71.4718-2.01,1.30384-.31.83205-.03,1.76682.68,2.29626.12.0888.25.16292.39.22095c1.86.80985,2.82,2.88451,2.23,4.82401-.05.1437-.08.2924-.09.443-.06.8848.47,1.7028,1.3,2.0095s1.77.0289,2.3-.6825c.09-.1219.16-.2537.22-.393.81-1.8588,2.88-2.8153,4.82-2.224.15.0463.3.0754.45.087.88.0589,1.7-.4718,2.01-1.3039.3-.832.03-1.76668-.69-2.29612-.12-.08921-.25-.16378-.39-.22205-1.86-.80985-2.81-2.88451-2.22-4.82397.04-.14374.07-.29243.08-.443.06-.88481-.47-1.70282-1.3-2.00952s-1.77-.02888-2.3.6825c-.08.12218-.16.25447-.22.39404Z" transform="translate(258 0)" opacity="0.5" fill="#4d8af0"/><path d="M475.403,689.924c0-3.6-2.918-6.518-6.518-6.518s-6.518,2.918-6.518,6.518s2.918,6.518,6.518,6.518s6.518-2.918,6.518-6.518Z" transform="translate(5 38)" opacity="0.5" fill="#4d8af0"/><path d="M1155,34.9242c0-3.5998-2.92-6.518-6.52-6.518s-6.52,2.9182-6.52,6.518s2.92,6.5179,6.52,6.5179s6.52-2.9181,6.52-6.5179Z" transform="translate(258 0)" opacity="0.5" fill="#4d8af0"/><path d="M732.125,21.5361c0-3.5998-2.918-6.5179-6.518-6.5179s-6.518,2.9181-6.518,6.5179s2.918,6.5181,6.518,6.5181s6.518-2.9183,6.518-6.5181Z" transform="translate(258 0)" opacity="0.5" fill="#f55f44"/><g transform="translate(258 0)" opacity="0.5"><path d="M852.148,79.7991v3.259h18.467v-3.259h-18.467Z" fill="#47e6b1"/><path d="M863.011,72.1951h-3.259v18.467h3.259v-18.467Z" fill="#47e6b1"/></g><g opacity="0.5"><path d="M62.6421,3079.85h-3.259v18.46h3.259v-18.46Z" fill="#47e6b1"/><path d="M70.2461,3090.71v-3.26h-18.467v3.26h18.467Z" fill="#47e6b1"/></g></svg>
