<svg xmlns="http://www.w3.org/2000/svg" viewBox="0 0 1280 184.96">
<g opacity="0.5">
<path d="M905.89,45.2h-3.26V63.66h3.26Z" transform="translate(-113.19 -7.14)" fill="#47e6b1"/>
<path d="M913.5,56.06V52.8H895v3.26Z" transform="translate(-113.19 -7.14)" fill="#47e6b1"/>
</g>
<g opacity="0.5">
<path d="M359.89,101.2h-3.26v18.46h3.26Z" transform="translate(-113.19 -7.14)" fill="#47e6b1"/>
<path d="M367.5,112.06V108.8H349v3.26Z" transform="translate(-113.19 -7.14)" fill="#47e6b1"/>
</g>
<path d="M612.16,152.17a6.52,6.52,0,1,0-6.52-6.51A6.51,6.51,0,0,0,612.16,152.17Z" transform="translate(-113.19 -7.14)" fill="#f55f44" opacity="0.5" style="isolation:isolate"/>
<path d="M1225.73,20.17a6.52,6.52,0,1,0-6.52-6.51A6.52,6.52,0,0,0,1225.73,20.17Z" transform="translate(-113.19 -7.14)" fill="#f55f44" opacity="0.5" style="isolation:isolate"/>
<path d="M126.55,181.74a4,4,0,0,1-2.22-4.83,2.14,2.14,0,0,0,.08-.44,2,2,0,0,0-3.6-1.33,2.24,2.24,0,0,0-.22.4,4,4,0,0,1-4.82,2.22,2.14,2.14,0,0,0-.44-.08,2,2,0,0,0-1.33,3.59,1.9,1.9,0,0,0,.39.23,4,4,0,0,1,2.23,4.82,1.64,1.64,0,0,0-.09.44,2,2,0,0,0,3.6,1.33,1.87,1.87,0,0,0,.22-.39,4,4,0,0,1,4.82-2.23,1.8,1.8,0,0,0,.45.09,2,2,0,0,0,1.32-3.6A1.87,1.87,0,0,0,126.55,181.74Z" transform="translate(-113.19 -7.14)" fill="#4d8af0" opacity="0.5" style="isolation:isolate"/>
<path d="M1132.55,170.74a4,4,0,0,1-2.22-4.83,2.14,2.14,0,0,0,.08-.44,2,2,0,0,0-3.6-1.33,2.24,2.24,0,0,0-.22.4,4,4,0,0,1-4.82,2.22,2.23,2.23,0,0,0-.45-.08,2,2,0,0,0-1.32,3.59,1.9,1.9,0,0,0,.39.23,4,4,0,0,1,2.22,4.82,2.14,2.14,0,0,0-.08.44,2,2,0,0,0,3.6,1.33,1.87,1.87,0,0,0,.22-.39,4,4,0,0,1,4.82-2.23,1.8,1.8,0,0,0,.45.09,2,2,0,0,0,1.32-3.6A1.87,1.87,0,0,0,1132.55,170.74Z" transform="translate(-113.19 -7.14)" fill="#4d8af0" opacity="0.5" style="isolation:isolate"/>
<path d="M770.09,192.1a3.18,3.18,0,1,0-3.17-3.17A3.17,3.17,0,0,0,770.09,192.1Z" transform="translate(-113.19 -7.14)" fill="#dbdbdb"/>
</svg>