<svg xmlns="http://www.w3.org/2000/svg" viewBox="0 0 1280 81.76">
<g opacity="0.5">
<path d="M261.67,21.71h-3.26V40.17h3.26Z" transform="translate(-250.81 -8.65)" fill="#47e6b1"/>
<path d="M269.28,32.57V29.31H250.81v3.26Z" transform="translate(-250.81 -8.65)" fill="#47e6b1"/>
</g>
<path d="M665.93,21.68a6.52,6.52,0,1,0-6.51-6.52A6.52,6.52,0,0,0,665.93,21.68Z" transform="translate(-250.81 -8.65)" fill="#f55f44" opacity="0.5" style="isolation:isolate"/>
<path d="M403.33,83.25a4,4,0,0,1-2.22-4.83,2.14,2.14,0,0,0,.08-.44,2,2,0,0,0-3.6-1.33,2.24,2.24,0,0,0-.22.4,4,4,0,0,1-4.82,2.22,2.23,2.23,0,0,0-.45-.08,2,2,0,0,0-1.32,3.6,2.46,2.46,0,0,0,.39.22,4,4,0,0,1,2.22,4.82,2.14,2.14,0,0,0-.08.44,2,2,0,0,0,3.6,1.33,1.87,1.87,0,0,0,.22-.39A4,4,0,0,1,402,87a1.8,1.8,0,0,0,.45.09,2,2,0,0,0,1.32-3.6A1.87,1.87,0,0,0,403.33,83.25Z" transform="translate(-250.81 -8.65)" fill="#4d8af0" opacity="0.5" style="isolation:isolate"/>
</svg>