<?xml version="1.0" encoding="UTF-8" standalone="no" ?>
<!DOCTYPE svg PUBLIC "-//W3C//DTD SVG 1.1//EN" "http://www.w3.org/Graphics/SVG/1.1/DTD/svg11.dtd">
<svg xmlns="http://www.w3.org/2000/svg" xmlns:xlink="http://www.w3.org/1999/xlink" version="1.1" width="1080" height="1080" viewBox="0 0 1080 1080" xml:space="preserve">
<desc>Created with Fabric.js 5.2.4</desc>
<defs>
</defs>
<g transform="matrix(1 0 0 1 540 540)" id="eaaa24aa-8225-4d1c-8e7b-c3c5d2464255"  >
<rect style="stroke: none; stroke-width: 1; stroke-dasharray: none; stroke-linecap: butt; stroke-dashoffset: 0; stroke-linejoin: miter; stroke-miterlimit: 4; fill: rgb(255,255,255); fill-rule: nonzero; opacity: 1; visibility: hidden;" vector-effect="non-scaling-stroke"  x="-540" y="-540" rx="0" ry="0" width="1080" height="1080" />
</g>
<g transform="matrix(1 0 0 1 540 540)" id="11fe6a1e-f5a5-401b-958b-094c70d13755"  >
</g>
<g transform="matrix(1 0 0 1 540 540)"  >
<g style="" vector-effect="non-scaling-stroke"   >
		<g transform="matrix(1 0 0 1 -393.5 -34)"  >
<path style="stroke: none; stroke-width: 1; stroke-dasharray: none; stroke-linecap: butt; stroke-dashoffset: 0; stroke-linejoin: miter; stroke-miterlimit: 4; fill: rgb(245,95,68); fill-rule: nonzero; opacity: 0.5;" vector-effect="non-scaling-stroke"  transform=" translate(-303.9, -2914.31)" d="M 303.905 2920.82 C 307.505 2920.82 310.423 2917.9 310.423 2914.31 C 310.423 2910.71 307.505 2907.79 303.905 2907.79 C 300.305 2907.79 297.387 2910.71 297.387 2914.31 C 297.387 2917.9 300.305 2920.82 303.905 2920.82 Z" stroke-linecap="round" />
</g>
		<g transform="matrix(1 0 0 1 393.5 34)"  >
<path style="stroke: none; stroke-width: 1; stroke-dasharray: none; stroke-linecap: butt; stroke-dashoffset: 0; stroke-linejoin: miter; stroke-miterlimit: 4; fill: rgb(245,95,68); fill-rule: nonzero; opacity: 0.5;" vector-effect="non-scaling-stroke"  transform=" translate(-1090.91, -2982.31)" d="M 1090.9 2988.82 C 1094.5 2988.82 1097.42 2985.9 1097.42 2982.31 C 1097.42 2978.71 1094.5 2975.79 1090.9 2975.79 C 1087.3 2975.79 1084.39 2978.71 1084.39 2982.31 C 1084.39 2985.9 1087.3 2988.82 1090.9 2988.82 Z" stroke-linecap="round" />
</g>
		<g transform="matrix(1 0 0 1 -206.39 5.77)"  >
<path style="stroke: none; stroke-width: 1; stroke-dasharray: none; stroke-linecap: butt; stroke-dashoffset: 0; stroke-linejoin: miter; stroke-miterlimit: 4; fill: rgb(71,230,177); fill-rule: nonzero; opacity: 0.5;" vector-effect="non-scaling-stroke"  transform=" translate(-491.01, -2954.08)" d="M 492.642 2944.85 L 489.383 2944.85 L 489.383 2963.31 L 492.642 2963.31 L 492.642 2944.85 Z" stroke-linecap="round" />
</g>
		<g transform="matrix(1 0 0 1 -206.39 5.77)"  >
<path style="stroke: none; stroke-width: 1; stroke-dasharray: none; stroke-linecap: butt; stroke-dashoffset: 0; stroke-linejoin: miter; stroke-miterlimit: 4; fill: rgb(71,230,177); fill-rule: nonzero; opacity: 0.5;" vector-effect="non-scaling-stroke"  transform=" translate(-491.01, -2954.08)" d="M 500.246 2955.71 L 500.246 2952.45 L 481.779 2952.45 L 481.779 2955.71 L 500.246 2955.71 Z" stroke-linecap="round" />
</g>
		<g transform="matrix(1 0 0 1 90.61 11.77)"  >
<path style="stroke: none; stroke-width: 1; stroke-dasharray: none; stroke-linecap: butt; stroke-dashoffset: 0; stroke-linejoin: miter; stroke-miterlimit: 4; fill: rgb(71,230,177); fill-rule: nonzero; opacity: 0.5;" vector-effect="non-scaling-stroke"  transform=" translate(-788.01, -2960.08)" d="M 789.642 2950.85 L 786.383 2950.85 L 786.383 2969.31 L 789.642 2969.31 L 789.642 2950.85 Z" stroke-linecap="round" />
</g>
		<g transform="matrix(1 0 0 1 90.61 11.77)"  >
<path style="stroke: none; stroke-width: 1; stroke-dasharray: none; stroke-linecap: butt; stroke-dashoffset: 0; stroke-linejoin: miter; stroke-miterlimit: 4; fill: rgb(71,230,177); fill-rule: nonzero; opacity: 0.5;" vector-effect="non-scaling-stroke"  transform=" translate(-788.01, -2960.08)" d="M 797.246 2961.71 L 797.246 2958.45 L 778.779 2958.45 L 778.779 2961.71 L 797.246 2961.71 Z" stroke-linecap="round" />
</g>
		<g transform="matrix(1 0 0 1 15.82 -20.04)"  >
<path style="stroke: none; stroke-width: 1; stroke-dasharray: none; stroke-linecap: butt; stroke-dashoffset: 0; stroke-linejoin: miter; stroke-miterlimit: 4; fill: rgb(77,138,240); fill-rule: nonzero; opacity: 0.5;" vector-effect="non-scaling-stroke"  transform=" translate(-713.22, -2928.27)" d="M 719.3 2928.39 C 717.441 2927.58 716.485 2925.5 717.076 2923.56 C 717.122 2923.42 717.151 2923.27 717.163 2923.12 C 717.222 2922.24 716.691 2921.42 715.859 2921.11 C 715.027 2920.81 714.092 2921.08 713.563 2921.79 C 713.474 2921.92 713.4 2922.05 713.342 2922.19 C 712.532 2924.05 710.457 2925 708.518 2924.41 C 708.374 2924.37 708.225 2924.34 708.075 2924.33 C 707.19 2924.27 706.372 2924.8 706.065 2925.63 C 705.759 2926.46 706.037 2927.4 706.748 2927.92 C 706.87 2928.01 707.002 2928.09 707.141 2928.15 C 709 2928.96 709.956 2931.03 709.365 2932.97 C 709.319 2933.11 709.289 2933.26 709.278 2933.41 C 709.219 2934.3 709.75 2935.12 710.582 2935.42 C 711.414 2935.73 712.349 2935.45 712.878 2934.74 C 712.967 2934.62 713.042 2934.49 713.1 2934.35 C 713.91 2932.49 715.984 2931.53 717.924 2932.12 C 718.068 2932.17 718.216 2932.2 718.367 2932.21 C 719.252 2932.27 720.07 2931.74 720.376 2930.91 C 720.683 2930.07 720.405 2929.14 719.694 2928.61 C 719.572 2928.52 719.44 2928.45 719.3 2928.39 Z" stroke-linecap="round" />
</g>
</g>
</g>
</svg>